<?xml version="1.0" encoding="iso-8859-1"?>
<!-- Generator: Adobe Illustrator 19.0.0, SVG Export Plug-In . SVG Version: 6.00 Build 0)  -->
<svg version="1.1" id="Capa_1" xmlns="http://www.w3.org/2000/svg" xmlns:xlink="http://www.w3.org/1999/xlink" x="0px" y="0px"
	 viewBox="0 0 512 512" style="enable-background:new 0 0 512 512;" xml:space="preserve">
<g>
	<g>
		<rect x="170.09" y="341.64" width="15" height="15"/>
	</g>
</g>
<g>
	<g>
		<rect x="145.09" y="341.64" width="15" height="15"/>
	</g>
</g>
<g>
	<g>
		<rect x="195.09" y="341.64" width="15" height="15"/>
	</g>
</g>
<g>
	<g>
		<rect x="350.95" y="341.64" width="15" height="15"/>
	</g>
</g>
<g>
	<g>
		<rect x="261.68" y="341.64" width="54.27" height="15"/>
	</g>
</g>
<g>
	<g>
		<rect x="325.95" y="341.64" width="15" height="15"/>
	</g>
</g>
<g>
	<g>
		<path d="M68.023,280.507v51.398h18.581V512h46.09V381.384h24.739c2.757,0,5,2.243,5,5v12.374h-25.87L156.23,512h39.679
			l-18.476-106.388v-19.229c0-1.726-0.22-3.401-0.633-5h158.398c-0.413,1.599-0.633,3.274-0.633,5v19.229L316.09,512h39.679
			l19.667-113.242h-25.87v-12.374c0-2.757,2.243-5,5-5h24.732V512h46.09V331.905h18.581v-51.398H68.023z M117.694,497h-16.09
			v-49.455h8.045v-15h-8.045v-100.64h16.09V497z M178.081,497h-9.231l-14.457-83.242h9.231L178.081,497z M357.607,413.758
			L343.15,497h-9.231l14.457-83.242H357.607z M379.298,366.384H132.694v-34.479h246.604V366.384z M410.389,413.121h-8.045v15h8.045
			V497h-16.09V331.905h16.09V413.121z M428.969,316.905h-275.99v-10.703h-15v10.703H83.023v-21.398h275.998v13.442h15v-13.442
			h54.948V316.905z"/>
	</g>
</g>
<g>
	<g>
		<path d="M329.663,257.758c-3.522-34.851-31.313-62.642-66.163-66.163v-4.524h13.542v-15h-42.085v15H248.5v4.524
			c-34.851,3.522-62.642,31.313-66.163,66.163H162.16v15h187.673v-15H329.663z M197.434,257.758
			c3.694-29.029,28.55-51.541,58.566-51.541s54.872,22.512,58.566,51.541H197.434z"/>
	</g>
</g>
<g>
	<g>
		<path d="M255.998,219.654c-11.194,0-21.963,4.109-30.329,11.571l9.985,11.193c5.613-5.007,12.838-7.765,20.345-7.765
			s14.732,2.758,20.345,7.765l9.985-11.193C277.964,223.763,267.192,219.654,255.998,219.654z"/>
	</g>
</g>
<g>
	<g>
		<path d="M53.642,398.758v-12.374c0-2.757,2.243-5,5-5h15.462v-15H58.642c-11.028,0-20,8.972-20,20v12.374H34.05l-6.854-66.853
			h12.063c5.649,0,11.061-2.405,14.846-6.599c3.785-4.193,5.625-9.822,5.049-15.441l-7.908-77.136
			c-1.05-10.239-9.604-17.96-19.896-17.96H0.108l20.4,198.989h16.719L20.165,512h39.68l19.667-113.242H53.642z M16.724,229.768
			h14.627v0.001c2.573,0,4.712,1.93,4.974,4.49l1.9,18.529h-8.891v15h10.428l4.47,43.607c0.197,1.923-0.706,3.244-1.262,3.86
			c-0.556,0.616-1.778,1.649-3.711,1.649H25.658L16.724,229.768z M47.226,497h-9.23l14.457-83.242h9.23L47.226,497z"/>
	</g>
</g>
<g>
	<g>
		<path d="M491.492,413.758l20.4-198.989H480.65c-10.292,0-18.846,7.721-19.896,17.96l-7.908,77.136
			c-0.576,5.62,1.264,11.248,5.049,15.441c3.786,4.193,9.197,6.599,14.846,6.599h12.063l-6.854,66.853h-4.592v-12.374
			c0-11.028-8.972-20-20-20h-15.462v15h15.462c2.757,0,5,2.243,5,5v12.374h-25.87L452.155,512h39.68l-17.062-98.242H491.492z
			 M472.742,316.905c-1.934,0-3.156-1.034-3.712-1.65c-0.556-0.616-1.459-1.937-1.262-3.861l7.908-77.136
			c0.262-2.56,2.401-4.49,4.974-4.49h14.626l-3.19,31.119h-10.173v15h8.635l-4.205,41.018H472.742z M464.774,497l-14.457-83.242
			h9.23L474.005,497H464.774z"/>
	</g>
</g>
<g>
	<g>
		<path d="M263.5,25.357V0h-15v25.357h-35v122h85v-122H263.5z M283.5,132.357h-55V73.75h17v-15h-17V40.357h55V132.357z"/>
	</g>
</g>
<g>
	<g>
		<rect x="261.5" y="74.36" width="15" height="15"/>
	</g>
</g>
<g>
	<g>
		<rect x="261.5" y="49.36" width="15" height="15"/>
	</g>
</g>
<g>
	<g>
		<rect x="261.5" y="99.36" width="15" height="24"/>
	</g>
</g>
<g>
</g>
<g>
</g>
<g>
</g>
<g>
</g>
<g>
</g>
<g>
</g>
<g>
</g>
<g>
</g>
<g>
</g>
<g>
</g>
<g>
</g>
<g>
</g>
<g>
</g>
<g>
</g>
<g>
</g>
</svg>
